<svg width="511" height="163" viewBox="0 0 511 163" fill="none" xmlns="http://www.w3.org/2000/svg">
<path d="M486.491 162.8C482.091 162.8 478.091 161.867 474.491 160C470.891 158.133 468.024 155.533 465.891 152.2C463.891 148.867 462.891 145.133 462.891 141V21.8C462.891 17.6667 463.891 13.9333 465.891 10.6C468.024 7.26667 470.891 4.66667 474.491 2.8C478.091 0.933333 482.091 0 486.491 0C490.891 0 494.891 0.933333 498.491 2.8C502.091 4.66667 504.891 7.26667 506.891 10.6C509.024 13.9333 510.091 17.6667 510.091 21.8V88.4H483.691V141C483.691 141.8 483.957 142.467 484.491 143C485.024 143.533 485.691 143.8 486.491 143.8C487.291 143.8 487.957 143.533 488.491 143C489.024 142.467 489.291 141.8 489.291 141V103H510.091V141C510.091 145.133 509.024 148.867 506.891 152.2C504.891 155.533 502.091 158.133 498.491 160C494.891 161.867 490.891 162.8 486.491 162.8ZM489.291 69.4V21.8C489.291 21 489.024 20.3333 488.491 19.8C487.957 19.2667 487.291 19 486.491 19C485.691 19 485.024 19.2667 484.491 19.8C483.957 20.3333 483.691 21 483.691 21.8V69.4H489.291Z" fill="white"/>
<path d="M410.113 1.3999H430.913L434.713 121.4L438.313 1.3999H459.113L445.113 161.4H424.313L410.113 1.3999Z" fill="white"/>
<path d="M385.547 41.3999H406.347V161.4H385.547V41.3999ZM385.547 1.3999H406.347V29.3999H385.547V1.3999Z" fill="white"/>
<path d="M334.57 21.8C334.57 17.6667 335.57 13.9333 337.57 10.6C339.704 7.26667 342.57 4.66667 346.17 2.8C349.77 0.933333 353.77 0 358.17 0C362.57 0 366.57 0.933333 370.17 2.8C373.77 4.66667 376.57 7.26667 378.57 10.6C380.704 13.9333 381.77 17.6667 381.77 21.8V79.4H360.97V21.8C360.97 21 360.704 20.3333 360.17 19.8C359.637 19.2667 358.97 19 358.17 19C357.37 19 356.704 19.2667 356.17 19.8C355.637 20.3333 355.37 21 355.37 21.8V98.8H371.97V118H355.37V161.4H334.57V21.8Z" fill="white"/>
<path d="M295.993 121.4L281.793 1.3999H302.593L306.393 88.5999L309.993 1.3999H330.793L316.793 121.4V161.4H295.993V121.4Z" fill="white"/>
<path d="M255.241 162.8C250.841 162.8 246.841 161.867 243.241 160C239.641 158.133 236.774 155.533 234.641 152.2C232.641 148.867 231.641 145.133 231.641 141V1.3999H252.441V21.3999H278.841V40.3999H252.441V141C252.441 141.8 252.707 142.467 253.241 143C253.774 143.533 254.441 143.8 255.241 143.8C256.041 143.8 256.707 143.533 257.241 143C257.774 142.467 258.041 141.8 258.041 141V81.5999H278.841V141C278.841 145.133 277.774 148.867 275.641 152.2C273.641 155.533 270.841 158.133 267.241 160C263.641 161.867 259.641 162.8 255.241 162.8Z" fill="white"/>
<path d="M178.906 1.39991H199.706V7.99992C201.04 5.59992 202.706 3.73325 204.706 2.39991C206.706 1.06657 208.84 0.399902 211.106 0.399902C214.04 0.399902 216.573 1.33324 218.706 3.19992C220.973 5.06658 222.773 7.73324 224.106 11.1999C225.44 14.5332 226.106 18.1999 226.106 22.1999V161.4H205.306V22.1999C205.306 21.3999 205.04 20.7332 204.506 20.1999C203.973 19.6666 203.306 19.3999 202.506 19.3999C201.706 19.3999 201.04 19.6666 200.506 20.1999C199.973 20.7332 199.706 21.3999 199.706 22.1999V161.4H178.906V1.39991Z" fill="white"/>
<path d="M149.772 162.8C145.372 162.8 141.372 161.867 137.772 160C134.172 158.133 131.305 155.533 129.172 152.2C127.172 148.867 126.172 145.133 126.172 141V21.8C126.172 17.6667 127.172 13.9333 129.172 10.6C131.305 7.26667 134.172 4.66667 137.772 2.8C141.372 0.933333 145.372 0 149.772 0C154.172 0 158.172 0.933333 161.772 2.8C165.372 4.66667 168.172 7.26667 170.172 10.6C172.305 13.9333 173.372 17.6667 173.372 21.8V88.4H146.972V141C146.972 141.8 147.239 142.467 147.772 143C148.305 143.533 148.972 143.8 149.772 143.8C150.572 143.8 151.239 143.533 151.772 143C152.305 142.467 152.572 141.8 152.572 141V103H173.372V141C173.372 145.133 172.305 148.867 170.172 152.2C168.172 155.533 165.372 158.133 161.772 160C158.172 161.867 154.172 162.8 149.772 162.8ZM152.572 69.4V21.8C152.572 21 152.305 20.3333 151.772 19.8C151.239 19.2667 150.572 19 149.772 19C148.972 19 148.305 19.2667 147.772 19.8C147.239 20.3333 146.972 21 146.972 21.8V69.4H152.572Z" fill="white"/>
<path d="M50.1523 1.3999H70.9523L72.1523 121.4L78.3523 1.3999H94.1523L100.352 121.4L101.752 1.3999H122.552L111.752 161.4H90.9523L86.3523 58.9999L81.7523 161.4H60.9523L50.1523 1.3999Z" fill="white"/>
<path d="M23.6 162.8C19.2 162.8 15.2 161.867 11.6 160C8 158.133 5.13333 155.533 3 152.2C1 148.867 0 145.133 0 141V1.3999H20.8V21.3999H47.2V40.3999H20.8V141C20.8 141.8 21.0667 142.467 21.6 143C22.1333 143.533 22.8 143.8 23.6 143.8C24.4 143.8 25.0667 143.533 25.6 143C26.1333 142.467 26.4 141.8 26.4 141V81.5999H47.2V141C47.2 145.133 46.1333 148.867 44 152.2C42 155.533 39.2 158.133 35.6 160C32 161.867 28 162.8 23.6 162.8Z" fill="white"/>
</svg>
